<?xml version="1.0" encoding="UTF-8"?>
<svg width="404px" height="365px" viewBox="0 0 404 365" version="1.1" xmlns="http://www.w3.org/2000/svg" xmlns:xlink="http://www.w3.org/1999/xlink">
    <!-- Generator: Sketch 52.5 (67469) - http://www.bohemiancoding.com/sketch -->
    <title>landing</title>
    <desc>Created with Sketch.</desc>
    <g id="Page-1" stroke="none" stroke-width="1" fill="none" fill-rule="evenodd">
        <g id="landing" transform="translate(-13.000000, 0.000000)">
            <g id="Web" transform="translate(21.000000, 0.000000)">
                <rect id="Container" fill="#F2F2F2" x="0" y="0" width="396" height="346" rx="8"></rect>
                <path d="M8,0 L388,0 C392.418278,-8.11624501e-16 396,3.581722 396,8 L396,27 L0,27 L0,8 C-5.41083001e-16,3.581722 3.581722,8.11624501e-16 8,0 Z" id="Header" fill="#C5CFD6"></path>
                <g id="Buttons" transform="translate(9.000000, 10.000000)" fill="#F2F2F2">
                    <circle id="buttons" cx="4" cy="4" r="4"></circle>
                    <circle id="buttons" cx="16" cy="4" r="4"></circle>
                    <circle id="buttons" cx="28" cy="4" r="4"></circle>
                </g>
                <g id="Content" transform="translate(16.000000, 43.000000)">
                    <g id="Components" transform="translate(294.000000, 89.000000)">
                        <rect id="Background" fill="#FFFFFF" x="0" y="0" width="70" height="194" rx="8"></rect>
                        <g id="Rows" transform="translate(18.000000, 18.000000)">
                            <rect id="Data" fill="#DDE3E9" x="0" y="0" width="34" height="26" rx="4"></rect>
                            <rect id="Data" fill="#AFB9C5" x="0" y="34" width="34" height="25" rx="4"></rect>
                            <rect id="Data" fill="#DDE3E9" x="0" y="67" width="34" height="25" rx="4"></rect>
                            <rect id="Data" fill="#DDE3E9" x="0" y="133" width="34" height="25" rx="4"></rect>
                            <rect id="Data" fill="#C5CFD6" x="0" y="100" width="34" height="25" rx="4"></rect>
                        </g>
                    </g>
                    <g id="Profile" transform="translate(294.000000, 0.000000)">
                        <rect id="Background" fill="#FFFFFF" x="0" y="0" width="70" height="81" rx="8"></rect>
                        <g id="Profile-Info" transform="translate(10.000000, 15.000000)" fill="#DDE3E9">
                            <circle id="Avatar" cx="25" cy="16" r="16"></circle>
                            <rect id="Name" x="0" y="36" width="50" height="6" rx="3"></rect>
                            <rect id="Name" x="8" y="46" width="34" height="6" rx="3"></rect>
                        </g>
                    </g>
                    <g id="Rows">
                        <g id="Row">
                            <rect id="Container" fill="#FFFFFF" x="0" y="0" width="286" height="47" rx="4"></rect>
                            <g id="Text-Stuff" transform="translate(9.000000, 14.100000)" fill="#DDE3E9">
                                <rect id="Label" x="0" y="0" width="228" height="7.05" rx="3"></rect>
                                <rect id="Label" x="0" y="11.75" width="153.041096" height="7.05" rx="3"></rect>
                            </g>
                            <g id="Check" transform="translate(248.435115, 16.500000)">
                                <circle id="Background" fill="#DDE3E9" cx="7" cy="7" r="7"></circle>
                                <circle id="Indicator" fill="#F2F2F2" cx="7" cy="7" r="3"></circle>
                            </g>
                        </g>
                        <g id="Row" transform="translate(0.000000, 55.000000)">
                            <rect id="Container" fill="#FFFFFF" x="0" y="0" width="286" height="39" rx="4"></rect>
                            <g id="Text-Stuff" transform="translate(9.000000, 11.700000)" fill="#DDE3E9">
                                <rect id="Label" x="0" y="0" width="228" height="5.85" rx="2.925"></rect>
                                <rect id="Label" x="0" y="9.75" width="153.041096" height="5.85" rx="2.925"></rect>
                            </g>
                            <g id="Check" transform="translate(248.435115, 12.500000)">
                                <circle id="Background" fill="#DDE3E9" cx="7" cy="7" r="7"></circle>
                                <circle id="Indicator" fill="#F2F2F2" cx="7" cy="7" r="3"></circle>
                            </g>
                        </g>
                        <g id="Row" transform="translate(0.000000, 102.000000)">
                            <rect id="Container" fill="#FFFFFF" x="0" y="0" width="286" height="39" rx="4"></rect>
                            <g id="Text-Stuff" transform="translate(9.000000, 11.700000)" fill="#DDE3E9">
                                <rect id="Label" x="0" y="0" width="228" height="5.85" rx="2.925"></rect>
                                <rect id="Label" x="0" y="9.75" width="153.041096" height="5.85" rx="2.925"></rect>
                            </g>
                            <g id="Check" transform="translate(248.435115, 12.500000)">
                                <circle id="Background" fill="#DDE3E9" cx="7" cy="7" r="7"></circle>
                                <circle id="Indicator" fill="#AFB9C5" cx="7" cy="7" r="3"></circle>
                            </g>
                        </g>
                        <g id="Row" transform="translate(0.000000, 243.000000)">
                            <rect id="Container" fill="#FFFFFF" x="0" y="0" width="286" height="39" rx="4"></rect>
                            <g id="Text-Stuff" transform="translate(9.000000, 11.700000)" fill="#DDE3E9">
                                <rect id="Label" x="0" y="0" width="228" height="5.85" rx="2.925"></rect>
                                <rect id="Label" x="0" y="9.75" width="153.041096" height="5.85" rx="2.925"></rect>
                            </g>
                            <g id="Check" transform="translate(248.435115, 12.500000)">
                                <circle id="Background" fill="#DDE3E9" cx="7" cy="7" r="7"></circle>
                                <circle id="Indicator" fill="#F2F2F2" cx="7" cy="7" r="3"></circle>
                            </g>
                        </g>
                        <g id="Row" transform="translate(0.000000, 196.000000)">
                            <rect id="Container" fill="#FFFFFF" x="0" y="0" width="286" height="39" rx="4"></rect>
                            <g id="Text-Stuff" transform="translate(9.000000, 11.700000)" fill="#DDE3E9">
                                <rect id="Label" x="0" y="0" width="228" height="5.85" rx="2.925"></rect>
                                <rect id="Label" x="0" y="9.75" width="153.041096" height="5.85" rx="2.925"></rect>
                            </g>
                            <g id="Check" transform="translate(248.435115, 12.500000)">
                                <circle id="Background" fill="#DDE3E9" cx="7" cy="7" r="7"></circle>
                                <circle id="Indicator" fill="#F2F2F2" cx="7" cy="7" r="3"></circle>
                            </g>
                        </g>
                        <g id="Row" transform="translate(0.000000, 149.000000)">
                            <rect id="Container" fill="#FFFFFF" x="0" y="0" width="286" height="39" rx="4"></rect>
                            <g id="Text-Stuff" transform="translate(9.000000, 11.700000)" fill="#DDE3E9">
                                <rect id="Label" x="0" y="0" width="228" height="5.85" rx="2.925"></rect>
                                <rect id="Label" x="0" y="9.75" width="153.041096" height="5.85" rx="2.925"></rect>
                            </g>
                            <g id="Check" transform="translate(248.435115, 12.500000)">
                                <circle id="Background" fill="#DDE3E9" cx="7" cy="7" r="7"></circle>
                                <circle id="Indicator" fill="#F2F2F2" cx="7" cy="7" r="3"></circle>
                            </g>
                        </g>
                    </g>
                </g>
            </g>
            <g id="Group-3" transform="translate(89.000000, 237.000000) scale(-1, 1) translate(-89.000000, -237.000000) translate(0.000000, 109.000000)">
                <g id="Humaaan" transform="translate(89.000000, 128.000000) scale(-1, 1) translate(-89.000000, -128.000000) ">
                    <g id="Head/Front/Caesar" transform="translate(76.029091, 36.413464) rotate(-8.000000) translate(-76.029091, -36.413464) translate(35.682424, 5.652900)">
                        <g id="Head" stroke-width="1" transform="translate(32.161765, 18.480769)" fill="#BA8B72">
                            <path d="M4.92091312,20.5614217 C2.17649641,17.3369741 0.319017782,13.385369 0.629403552,8.95748213 C1.52371138,-3.80049303 19.2664043,-0.99390105 22.7177254,5.44522924 C26.1690465,11.8843595 25.7589398,28.2177475 21.2984148,29.3685997 C19.5195636,29.827558 15.7300816,28.703294 11.873273,26.3764132 L14.2941176,43.5192308 L0,43.5192308 L4.92091312,20.5614217 Z"></path>
                        </g>
                        <path d="M41.5302593,32.1130349 C41.0628044,31.791471 40.5043242,31.5961538 39.9044118,31.5961538 C38.2597403,31.5961538 36.9264706,33.0641433 36.9264706,34.5769231 C36.9264706,36.1506942 37.6689344,37.3675398 38.7292125,37.8837713 C38.1629246,38.9919761 37.5935152,39.7962334 36.9264706,39.9423077 C34.3524213,39.6816743 30.9705882,33.2776177 30.9705882,28.0192308 C30.9705882,22.2636686 35.5458868,17.2884615 44.0735294,17.2884615 C51.7381969,17.2884615 54.6443684,20.4517835 54.7941176,23.25 C51.5096588,24.1535335 45.7705091,24.501456 37.5220588,24.4423077 L37.5220588,25.0384615 L44.6691176,25.6346154 L45.8602941,29.2115385 C43.9651755,29.0699286 42.6109314,30.3710423 41.5302593,32.1130349 Z" id="Combined-Shape" fill="#191847"></path>
                    </g>
                    <g id="Bottom/Standing/Skinny-Jeans-Walk" transform="translate(0.000000, 114.619718)">
                        <polygon id="Leg" fill="#2F3676" points="75.9466667 0 104.475106 75.0585531 124.471442 130.380753 135.873333 130.380753 108.386388 5.79006856e-14"></polygon>
                        <path d="M68.8958659,0 C68.5857607,25.7541449 68.8099541,60.4279207 68.0874153,62.0333031 C67.6057228,63.103558 52.623251,75.2977195 23.14,98.6157876 L29.016955,108.552301 C64.0203586,86.1078131 82.4168478,73.3904052 84.2064227,70.4000774 C86.8907851,65.9145856 100.376811,24.6385034 107.393333,0 L68.8958659,0 Z" id="Leg" fill="#191847"></path>
                        <g id="Accessories/Shoe/Flat-Pointy" transform="translate(33.523333, 111.502092) rotate(50.000000) translate(-33.523333, -111.502092) translate(15.426667, 99.702929)" fill="#191847">
                            <path d="M0,24 L0.590163934,11.4 L12.9836066,11.4 C18.8602249,15.6 26.532356,19 36,21.6 L36,24 L13.5737705,24 L5.90163934,22.8 L5.90163934,24 L0,24 Z" id="Shoe"></path>
                        </g>
                        <g id="Accessories/Shoe/Flat-Pointy" transform="translate(123.413333, 117.401674)" fill="#191847">
                            <path d="M0,24 L0.590163934,11.4 L12.9836066,11.4 C18.8602249,15.6 26.532356,19 36,21.6 L36,24 L13.5737705,24 L5.90163934,22.8 L5.90163934,24 L0,24 Z" id="Shoe"></path>
                        </g>
                    </g>
                    <g id="Body/Trench-Coat" transform="translate(86.196568, 108.758822) rotate(-8.000000) translate(-86.196568, -108.758822) translate(10.249902, 53.448963)">
                        <path d="M117.380204,53.5674358 L135.30351,68.7582018 C140.331117,70.4987575 144.492003,72.5178958 147.786168,74.8156166 C148.546553,75.6122094 149.423293,77.179082 146.073296,76.684691 C142.723299,76.1903001 139.177364,75.8208943 138.632298,76.9368925 C138.087232,78.0528907 140.02936,79.5688389 138.981541,81.052775 C138.282996,82.0420658 135.505358,79.2448316 130.648629,72.6610724 L112.481662,63.596979 L117.380204,53.5674358 Z M32.285042,41.813306 L42.5841592,44.4307154 C28.7975077,67.60197 21.4248911,79.8477146 20.4663097,81.167949 C18.3095013,84.1384764 19.8760017,89.8717584 20.408214,92.8756077 C16.0407367,93.6539127 18.082812,87.2489012 12.5514025,88.3187407 C7.50258854,89.2952406 3.11030939,92.2500219 -1.31244896,87.7229461 C-1.85620111,87.1663687 -2.18816917,85.4983207 -0.195853249,84.756091 C4.76773228,82.9069261 12.1445747,79.3439453 13.3874122,77.8757154 C15.0822432,75.8735217 21.3814531,63.8527186 32.285042,41.813306 Z" id="Skin" fill="#B28B67" transform="translate(73.379336, 67.377354) rotate(-4.000000) translate(-73.379336, -67.377354) "></path>
                        <path d="M120.72152,52.044103 C123.158324,51.8692099 125.80897,52.2727801 128.650826,53.2300392 C130.049217,53.7010775 130.800878,55.2162308 130.329707,56.6142288 C130.056055,57.4261746 129.430104,58.0200271 128.679424,58.282953 C129.223196,58.6795462 129.771786,59.0739501 130.32525,59.4661254 L125.54724,69.217477 C105.441124,59.1953673 86.5432981,51.6392422 77.9319774,35.093545 C75.0417956,29.5403813 76.0200399,10.6775233 75.7441733,3.81529477 L82.0943463,1.21176638 C90.9462405,19.5040961 102.925982,37.0533663 120.72152,52.044103 Z" id="Back-Arm" fill="#C1DEE2"></path>
                        <path d="M53.4375,67.6148755 C72.1040061,69.6649167 86.796594,69.6649167 97.5152637,67.6148755 C98.843235,67.3608891 98.7849174,61.6378851 98.1690724,60.0748788 C88.578762,35.7348024 82.2701792,17.9167252 82.2701792,1.01065639 C80.510478,1.92957767 77.4308349,2.06728951 73.03125,1.42379191 C61.2074322,18.8460394 55.7724443,38.836075 53.4375,67.6148755 Z" id="Shirt" fill="#191847"></path>
                        <path d="M49.9691962,70.4924859 C49.3353481,69.8961159 49.0048943,69.0021247 49.1672645,68.0810185 C49.1672793,68.0809341 49.1672942,68.0808496 49.1673091,68.0807652 L49.4763745,66.3284619 C49.6860479,65.1396792 50.6515316,64.2740289 51.7914813,64.1385727 C51.990756,63.2480318 52.1625695,62.3634596 52.3044689,61.4853643 C53.5031283,54.0678786 51.4551556,46.7947933 51.5513358,39.6525867 C42.0037739,47.7962126 33.4388602,61.8579806 25.8565946,81.8378908 L14.6425651,78.5390159 C15.0704437,76.9498461 15.5136508,75.3801946 15.9721862,73.8300616 C14.6778595,73.094961 13.1654346,69.725794 14.2539212,69.1619992 C15.3780872,68.5797237 16.5690086,68.1698988 17.823177,67.9286842 C28.1053869,36.9678237 44.9199301,14.324929 68.2668065,-5.27577981e-13 L71.4740147,-5.23137089e-13 L75.0193772,-1.0658141e-14 C73.03125,26.2842898 100.491975,83.6684167 90.9569147,132.676526 C73.3327899,136.611196 48.1720719,124.369128 23.6804202,134.149733 C24.5917568,114.413606 42.8469322,91.228142 49.9691962,70.4924859 Z" id="Coat-Front" fill="#C1DEE2"></path>
                        <polygon id="Shade-Lapel" fill-opacity="0.1" fill="#000000" points="70.7190443 0.593582888 67.6557959 10.0110396 73.824498 17.0708761 68.2495459 22.6187766 81.7369616 45.7058824 65.2433795 22.6649012 70.7190443 17.0708761 65.2433795 10.8319726"></polygon>
                        <path d="M77.78125,54.6096257 C76.4695737,54.6096257 75.40625,53.5466012 75.40625,52.2352941 C75.40625,50.923987 76.4695737,49.8609626 77.78125,49.8609626 C79.0929263,49.8609626 80.15625,50.923987 80.15625,52.2352941 C80.15625,53.5466012 79.0929263,54.6096257 77.78125,54.6096257 Z M80.75,68.2620321 C79.4383237,68.2620321 78.375,67.1990076 78.375,65.8877005 C78.375,64.5763934 79.4383237,63.513369 80.75,63.513369 C82.0616763,63.513369 83.125,64.5763934 83.125,65.8877005 C83.125,67.1990076 82.0616763,68.2620321 80.75,68.2620321 Z M81.34375,81.9144385 C80.0320737,81.9144385 78.96875,80.8514141 78.96875,79.540107 C78.96875,78.2287998 80.0320737,77.1657754 81.34375,77.1657754 C82.6554263,77.1657754 83.71875,78.2287998 83.71875,79.540107 C83.71875,80.8514141 82.6554263,81.9144385 81.34375,81.9144385 Z" id="Buttons" fill-opacity="0.4" fill="#000000"></path>
                    </g>
                </g>
            </g>
        </g>
    </g>
</svg>